<?xml version="1.0" standalone="no"?>
<!DOCTYPE svg PUBLIC "-//W3C//DTD SVG 20010904//EN"
 "http://www.w3.org/TR/2001/REC-SVG-20010904/DTD/svg10.dtd">
<svg version="1.0" xmlns="http://www.w3.org/2000/svg"
 width="1024.000000pt" height="1024.000000pt" viewBox="0 0 1024.000000 1024.000000"
 preserveAspectRatio="xMidYMid meet">

<g transform="translate(0.000000,1024.000000) scale(0.100000,-0.100000)"
fill="#000000" stroke="none">
<path d="M5457 7375 c-16 -11 -271 -257 -549 -527 -38 -38 -74 -68 -79 -68 -6
0 -9 -10 -7 -22 2 -19 11 -24 46 -29 53 -7 128 -75 142 -129 41 -155 40 -117
40 -1247 0 -976 2 -1081 16 -1087 9 -3 323 -6 699 -6 554 0 685 2 694 13 7 10
11 237 11 774 l0 761 -26 74 c-32 88 -111 179 -189 216 -77 37 -163 62 -209
62 -64 -1 -189 -34 -241 -65 -92 -53 -178 -155 -132 -155 7 0 37 7 65 15 46
14 57 14 104 0 64 -19 75 -25 96 -57 9 -14 31 -45 47 -69 l30 -44 3 -513 3
-513 -30 -29 -29 -30 -220 0 c-192 0 -221 2 -233 17 -12 13 -14 235 -16 1342
-1 729 -6 1327 -10 1328 -4 1 -16 -4 -26 -12z"/>
<path d="M4442 6403 c-26 -27 -176 -172 -332 -323 -574 -556 -608 -593 -710
-782 -22 -42 -47 -82 -55 -88 -8 -7 -15 -19 -15 -28 0 -8 -11 -34 -24 -56 -21
-37 -41 -93 -91 -261 -25 -80 -30 -320 -10 -425 31 -166 42 -207 58 -230 9
-14 17 -31 17 -40 0 -8 11 -37 25 -65 13 -27 25 -55 25 -61 0 -6 16 -32 35
-57 19 -25 35 -50 35 -56 0 -6 11 -17 23 -26 13 -8 29 -27 35 -41 16 -34 93
-114 155 -162 135 -104 458 -262 534 -262 8 0 28 -7 45 -16 17 -9 73 -22 125
-30 52 -8 104 -19 114 -25 11 -5 24 -7 30 -4 15 10 -9 35 -33 35 -19 0 -137
44 -213 80 -22 10 -51 22 -65 25 -14 4 -29 11 -35 15 -5 4 -46 26 -91 49 -45
22 -87 47 -93 55 -7 8 -36 30 -64 48 -50 32 -237 211 -237 227 0 4 -11 18 -25
31 -14 13 -25 29 -25 35 0 7 -8 23 -19 36 -37 47 -94 205 -112 309 -12 74 -13
263 0 326 32 161 141 376 253 499 65 72 110 124 150 172 24 28 53 57 65 64 13
7 25 21 29 31 16 52 93 78 114 39 6 -13 10 -215 10 -588 0 -429 3 -572 12
-581 9 -9 96 -12 329 -12 175 0 324 3 333 6 14 5 16 34 16 214 0 115 -4 211
-9 214 -4 3 -49 6 -100 7 -146 2 -131 -96 -131 894 0 460 -2 840 -5 846 -11
16 -23 10 -73 -38z"/>
</g>
</svg>
